<?xml version="1.0" encoding="utf-8"?>
<!-- Generator: Adobe Illustrator 14.0.0, SVG Export Plug-In  -->
<!DOCTYPE svg PUBLIC "-//W3C//DTD SVG 1.1//EN" "http://www.w3.org/Graphics/SVG/1.1/DTD/svg11.dtd" [
	<!ENTITY ns_flows "http://ns.adobe.com/Flows/1.0/">
]>
<svg version="1.1"
	 xmlns="http://www.w3.org/2000/svg" xmlns:xlink="http://www.w3.org/1999/xlink" xmlns:a="http://ns.adobe.com/AdobeSVGViewerExtensions/3.0/"
	 x="0px" y="0px" width="128px" height="100px" viewBox="0.037 -31.333 128 100" enable-background="new 0.037 -31.333 128 100"
	 xml:space="preserve">
<defs>
</defs>
<path fill-rule="evenodd" clip-rule="evenodd" fill="#0C2937" d="M13.181,4.985c2.27,0,4.406,0.575,6.271,1.585
	c-0.342,0.493-0.727,0.948-0.946,1.174c-0.355,0.364-0.77,0.728-1.211,1.025c-1.259-0.553-2.65-0.859-4.114-0.859
	c-5.664,0-10.257,4.591-10.257,10.256c0,5.665,4.593,10.256,10.257,10.256c1.682,0,3.27-0.402,4.67-1.121
	c0.396,0.265,0.746,0.613,1.015,0.945c0.267,0.326,0.593,0.841,0.822,1.385c-1.92,1.091-4.142,1.718-6.508,1.718
	C5.902,31.35,0,25.447,0,18.167S5.902,4.985,13.181,4.985L13.181,4.985z M23.749,10.289c1.642,2.197,2.613,4.924,2.613,7.878
	c0,2.646-0.78,5.11-2.123,7.174c-0.535-0.302-1.083-0.761-1.327-1.025c-0.321-0.35-0.588-0.735-0.776-1.146
	c0.828-1.481,1.301-3.187,1.301-5.003c0-1.954-0.547-3.78-1.496-5.334c0.3-0.58,0.668-1.149,0.866-1.422
	C22.994,11.155,23.351,10.715,23.749,10.289L23.749,10.289z"/>
<path fill="#0C2937" d="M15.365,24.907c-0.687,0.222-1.421,0.344-2.184,0.344c-3.912,0-7.083-3.172-7.083-7.083
	c0-3.911,3.171-7.083,7.083-7.083c0.712,0,1.4,0.105,2.048,0.3c2.858,0.861,7.66-4.392,6.973-6.903
	c-0.082-0.298-0.125-0.613-0.125-0.938C22.077,1.586,23.663,0,25.62,0c1.957,0,3.544,1.586,3.544,3.543
	c0,1.957-1.587,3.544-3.544,3.544c-0.154,0-0.307-0.01-0.457-0.03c-2.09-0.269-6.745,5.709-5.625,7.984
	c0.464,0.943,0.725,2.004,0.725,3.125c0,0.731-0.111,1.439-0.316,2.103c-1.364,4.392,3.476,8.081,5.85,7.386
	c0.493-0.145,1.014-0.221,1.555-0.221c3.049,0,5.521,2.469,5.521,5.52c0,3.05-2.472,5.521-5.521,5.521
	c-3.05,0-5.521-2.471-5.521-5.521c0-0.454,0.056-0.897,0.16-1.323C22.705,28.723,19.113,23.693,15.365,24.907L15.365,24.907z
	 M13.818,15.477l-2.006,2.014l0.288,1.172h0.769c0.529,0,0.935,0.093,1.218,0.277c0.285,0.184,0.427,0.452,0.427,0.802
	c0,0.321-0.11,0.573-0.331,0.755c-0.22,0.187-0.506,0.275-0.858,0.275c-0.433,0-0.807-0.086-1.124-0.256
	c-0.316-0.174-0.618-0.423-0.907-0.752l-1.272,1.215c0.36,0.435,0.807,0.789,1.339,1.061c0.531,0.269,1.179,0.402,1.939,0.402
	c0.463,0,0.884-0.066,1.263-0.203c0.377-0.138,0.696-0.328,0.959-0.577c0.262-0.248,0.463-0.54,0.604-0.876
	c0.142-0.337,0.212-0.706,0.212-1.105c0-0.392-0.064-0.727-0.195-1.002c-0.127-0.277-0.297-0.508-0.506-0.696
	c-0.209-0.189-0.452-0.333-0.726-0.438c-0.275-0.104-0.556-0.181-0.843-0.229l2.138-2.03v-1.393h-5.693v1.584H13.818L13.818,15.477z
	"/>
<path fill="#0C2937" d="M54.807,19.22c0-0.912-0.167-1.773-0.499-2.586c-0.333-0.813-0.795-1.521-1.386-2.124
	c-0.591-0.604-1.298-1.081-2.123-1.433c-0.825-0.351-1.736-0.525-2.734-0.525c-0.997,0-1.908,0.177-2.733,0.535
	c-0.826,0.357-1.54,0.84-2.142,1.449c-0.604,0.611-1.072,1.321-1.404,2.134c-0.332,0.813-0.499,1.675-0.499,2.585
	s0.167,1.774,0.499,2.586c0.333,0.814,0.795,1.521,1.385,2.124c0.591,0.603,1.299,1.081,2.125,1.431
	c0.825,0.353,1.735,0.526,2.732,0.526s1.909-0.179,2.734-0.536c0.824-0.357,1.539-0.841,2.142-1.448
	c0.603-0.61,1.071-1.321,1.404-2.134C54.64,20.993,54.807,20.131,54.807,19.22L54.807,19.22z M63.007,14.751l-3.491,3.711
	l0.37,1.423h1.053c0.923,0,1.65,0.172,2.179,0.518c0.53,0.344,0.794,0.841,0.794,1.495c0,0.603-0.212,1.085-0.637,1.438
	c-0.425,0.36-0.958,0.537-1.598,0.537c-0.727,0-1.357-0.144-1.893-0.434c-0.536-0.289-1.038-0.711-1.506-1.266l-1.588,1.479
	c0.554,0.664,1.234,1.208,2.042,1.633c0.806,0.427,1.776,0.638,2.909,0.638c0.665,0,1.278-0.102,1.838-0.306
	c0.561-0.201,1.036-0.485,1.431-0.849s0.702-0.793,0.925-1.293c0.221-0.497,0.332-1.049,0.332-1.652c0-0.603-0.105-1.12-0.314-1.552
	s-0.489-0.791-0.841-1.079c-0.351-0.29-0.757-0.518-1.218-0.684c-0.462-0.166-0.939-0.281-1.432-0.342l3.601-3.694v-1.698h-8.55
	v1.976H63.007L63.007,14.751z M52.424,19.256c0,0.629-0.108,1.223-0.323,1.781c-0.215,0.561-0.515,1.049-0.896,1.461
	c-0.382,0.412-0.841,0.738-1.375,0.978c-0.536,0.24-1.124,0.361-1.765,0.361c-0.64,0-1.231-0.123-1.773-0.369
	c-0.541-0.247-1.005-0.579-1.394-0.999c-0.388-0.417-0.689-0.906-0.905-1.466c-0.215-0.562-0.322-1.156-0.322-1.783
	c0-0.628,0.107-1.223,0.322-1.783c0.216-0.56,0.514-1.047,0.896-1.46c0.381-0.412,0.841-0.738,1.375-0.978
	c0.536-0.24,1.125-0.36,1.764-0.36c0.64,0,1.232,0.123,1.773,0.368c0.541,0.247,1.006,0.579,1.394,0.998
	c0.389,0.418,0.69,0.909,0.905,1.468C52.316,18.034,52.424,18.628,52.424,19.256L52.424,19.256z"/>
<path fill="#0C2937" d="M73.81,21.14v-2.197h-5.467v2.197H73.81L73.81,21.14z M128.074,17.114c0-0.666-0.114-1.262-0.342-1.792
	c-0.229-0.53-0.555-0.984-0.979-1.368c-0.426-0.38-0.942-0.673-1.552-0.877c-0.61-0.202-1.291-0.303-2.042-0.303h-5.096v12.928
	h2.253v-4.157h2.573c0.717,0,1.388-0.096,2.02-0.284c0.627-0.192,1.176-0.472,1.646-0.841c0.469-0.369,0.837-0.831,1.111-1.385
	C127.937,18.482,128.074,17.84,128.074,17.114L128.074,17.114z M125.765,17.161c0,0.704-0.25,1.271-0.752,1.696
	c-0.498,0.427-1.182,0.64-2.047,0.64h-2.649v-4.673h2.649c0.854,0,1.533,0.194,2.037,0.585
	C125.511,15.796,125.765,16.382,125.765,17.161L125.765,17.161z M115.312,19.22c0-0.912-0.168-1.773-0.5-2.586
	c-0.331-0.813-0.793-1.521-1.385-2.124c-0.592-0.604-1.299-1.081-2.123-1.433c-0.826-0.351-1.736-0.525-2.734-0.525
	s-1.908,0.177-2.733,0.535c-0.825,0.357-1.538,0.84-2.143,1.449c-0.603,0.611-1.071,1.321-1.403,2.134
	c-0.333,0.813-0.5,1.675-0.5,2.585s0.167,1.774,0.5,2.586c0.332,0.814,0.795,1.521,1.385,2.124c0.591,0.603,1.299,1.081,2.125,1.431
	c0.824,0.353,1.735,0.526,2.732,0.526c0.998,0,1.91-0.179,2.733-0.536c0.825-0.357,1.539-0.841,2.143-1.448
	c0.604-0.61,1.072-1.321,1.403-2.134C115.144,20.993,115.312,20.131,115.312,19.22L115.312,19.22z M112.928,19.256
	c0,0.629-0.106,1.223-0.323,1.781c-0.215,0.561-0.514,1.049-0.896,1.461s-0.839,0.738-1.375,0.978
	c-0.536,0.24-1.124,0.361-1.765,0.361s-1.231-0.123-1.773-0.369c-0.541-0.247-1.006-0.579-1.395-0.999
	c-0.388-0.417-0.689-0.906-0.905-1.466c-0.214-0.562-0.323-1.156-0.323-1.783c0-0.628,0.109-1.223,0.323-1.783
	c0.216-0.56,0.515-1.047,0.897-1.46c0.38-0.412,0.84-0.738,1.375-0.978c0.535-0.24,1.123-0.36,1.764-0.36
	c0.64,0,1.23,0.123,1.773,0.368c0.542,0.247,1.006,0.579,1.395,0.998c0.388,0.418,0.689,0.909,0.904,1.468
	C112.822,18.034,112.928,18.628,112.928,19.256L112.928,19.256z M96.787,20.254v5.448h2.253V12.775h-2.253v5.374h-6.205v-5.374
	h-2.254v12.928h2.254v-5.448H96.787L96.787,20.254z M78.411,16.154c0-0.432,0.185-0.798,0.553-1.1
	c0.37-0.301,0.888-0.452,1.552-0.452c0.592,0,1.176,0.113,1.754,0.341c0.58,0.229,1.164,0.559,1.755,0.989l1.22-1.718
	c-0.666-0.53-1.376-0.932-2.133-1.211c-0.758-0.277-1.611-0.414-2.558-0.414c-0.642,0-1.231,0.088-1.771,0.268
	c-0.541,0.178-1.004,0.434-1.389,0.766c-0.385,0.332-0.688,0.729-0.908,1.191c-0.219,0.462-0.33,0.977-0.33,1.542
	c0,0.604,0.096,1.115,0.287,1.532c0.191,0.419,0.471,0.776,0.834,1.071c0.363,0.296,0.816,0.542,1.352,0.739
	c0.539,0.196,1.151,0.377,1.844,0.535c0.604,0.148,1.094,0.291,1.471,0.424c0.377,0.139,0.672,0.281,0.891,0.436
	c0.215,0.153,0.363,0.323,0.443,0.507c0.079,0.185,0.12,0.396,0.12,0.63c0,0.504-0.207,0.904-0.619,1.199
	c-0.413,0.296-0.97,0.443-1.671,0.443c-0.813,0-1.539-0.144-2.18-0.434c-0.641-0.289-1.274-0.705-1.903-1.246l-1.366,1.624
	c0.776,0.701,1.619,1.222,2.53,1.562c0.911,0.337,1.866,0.508,2.862,0.508c0.678,0,1.299-0.087,1.865-0.258
	c0.564-0.173,1.051-0.427,1.451-0.759c0.402-0.332,0.716-0.738,0.944-1.218c0.225-0.481,0.339-1.029,0.339-1.644
	c0-0.544-0.089-1.015-0.268-1.415c-0.179-0.398-0.443-0.75-0.789-1.051c-0.344-0.301-0.781-0.557-1.305-0.767
	s-1.127-0.4-1.803-0.573c-0.619-0.146-1.128-0.289-1.53-0.423c-0.401-0.137-0.715-0.285-0.946-0.445
	c-0.227-0.16-0.385-0.333-0.471-0.517C78.454,16.634,78.411,16.413,78.411,16.154L78.411,16.154z"/>
</svg>
